<?xml version="1.0" encoding="UTF-8" standalone="no"?>
<!DOCTYPE svg PUBLIC "-//W3C//DTD SVG 1.1//EN"
 "http://www.w3.org/Graphics/SVG/1.1/DTD/svg11.dtd">
<!-- Generated by graphviz version 2.40.1 (20161225.0304)
 -->
<!-- Title: G Pages: 1 -->
<svg width="64pt" height="260pt"
 viewBox="0.00 0.00 63.66 260.00" xmlns="http://www.w3.org/2000/svg" xmlns:xlink="http://www.w3.org/1999/xlink">
  <style type="text/css">
    @font-face {
      font-family : Bonk;
      src         : url('./Impact.ttf');
    }
  </style>

<g id="graph0" class="graph" transform="scale(1 1) rotate(0) translate(4 256)">
<title>G</title>
<polygon fill="#eeeeee" stroke="transparent" points="-4,4 -4,-256 59.655,-256 59.655,4 -4,4"/>
<!-- n0 -->
<g id="node1" class="node">
<title>n0</title>
<polygon fill="#ffffff" stroke="#000000" points="54.8275,-252 .8275,-252 .8275,-216 54.8275,-216 54.8275,-252"/>
<text text-anchor="middle" x="27.8275" y="-229.8" font-family="Times New Roman" font-size="14.00" fill="#000000">solid</text>
</g>
<!-- n1 -->
<g id="node2" class="node">
<title>n1</title>
<polygon fill="#ffffff" stroke="#000000" points="54.8275,-180 .8275,-180 .8275,-144 54.8275,-144 54.8275,-180"/>
<text text-anchor="middle" x="27.8275" y="-157.8" font-family="Times New Roman" font-size="14.00" fill="#000000">liquid</text>
</g>
<!-- n0&#45;&gt;n1 -->
<g id="edge1" class="edge">
<title>n0&#45;&gt;n1</title>
<path fill="none" stroke="#888888" d="M26.8275,-205.5726C26.8275,-200.6792 26.8275,-195.5904 26.8275,-190.6901"/>
<path fill="none" stroke="#777777" d="M28.8275,-205.5726C28.8275,-200.6792 28.8275,-195.5904 28.8275,-190.6901"/>
<polygon fill="none" stroke="#777777" points="24.3276,-205.8313 27.8275,-215.8314 31.3276,-205.8314 24.3276,-205.8313"/>
<polygon fill="none" stroke="#888888" points="31.3276,-190.4132 27.8275,-180.4133 24.3276,-190.4133 31.3276,-190.4132"/>
<text text-anchor="middle" x="20.5033" y="-182.2133" font-family="Open Sans, Helvetica Neue, Helvetica, Arial, sans-serif" font-size="6.00" fill="#000000">freeze</text>
<text text-anchor="middle" x="22.4947" y="-210.4314" font-family="Open Sans, Helvetica Neue, Helvetica, Arial, sans-serif" font-size="6.00" fill="#000000">melt</text>
</g>
<!-- n2 -->
<g id="node3" class="node">
<title>n2</title>
<polygon fill="#ffffff" stroke="#000000" points="54.8275,-108 .8275,-108 .8275,-72 54.8275,-72 54.8275,-108"/>
<text text-anchor="middle" x="27.8275" y="-85.8" font-family="Times New Roman" font-size="14.00" fill="#000000">gas</text>
</g>
<!-- n1&#45;&gt;n2 -->
<g id="edge2" class="edge">
<title>n1&#45;&gt;n2</title>
<path fill="none" stroke="#888888" d="M26.8275,-133.5726C26.8275,-128.6792 26.8275,-123.5904 26.8275,-118.6901"/>
<path fill="none" stroke="#777777" d="M28.8275,-133.5726C28.8275,-128.6792 28.8275,-123.5904 28.8275,-118.6901"/>
<polygon fill="none" stroke="#777777" points="24.3276,-133.8313 27.8275,-143.8314 31.3276,-133.8314 24.3276,-133.8313"/>
<polygon fill="none" stroke="#888888" points="31.3276,-118.4132 27.8275,-108.4133 24.3276,-118.4133 31.3276,-118.4132"/>
<text text-anchor="middle" x="16.6657" y="-110.2133" font-family="Open Sans, Helvetica Neue, Helvetica, Arial, sans-serif" font-size="6.00" fill="#000000">condense</text>
<text text-anchor="middle" x="23.1601" y="-138.4314" font-family="Open Sans, Helvetica Neue, Helvetica, Arial, sans-serif" font-size="6.00" fill="#000000">boil</text>
</g>
<!-- n3 -->
<g id="node4" class="node">
<title>n3</title>
<polygon fill="#ffffff" stroke="#000000" points="55.4836,-36 .1714,-36 .1714,0 55.4836,0 55.4836,-36"/>
<text text-anchor="middle" x="27.8275" y="-13.8" font-family="Times New Roman" font-size="14.00" fill="#000000">plasma</text>
</g>
<!-- n2&#45;&gt;n3 -->
<g id="edge3" class="edge">
<title>n2&#45;&gt;n3</title>
<path fill="none" stroke="#888888" d="M26.8275,-61.5726C26.8275,-56.6792 26.8275,-51.5904 26.8275,-46.6901"/>
<path fill="none" stroke="#777777" d="M28.8275,-61.5726C28.8275,-56.6792 28.8275,-51.5904 28.8275,-46.6901"/>
<polygon fill="none" stroke="#777777" points="24.3276,-61.8313 27.8275,-71.8314 31.3276,-61.8314 24.3276,-61.8313"/>
<polygon fill="none" stroke="#888888" points="31.3276,-46.4132 27.8275,-36.4133 24.3276,-46.4133 31.3276,-46.4132"/>
<text text-anchor="middle" x="19.8337" y="-38.2133" font-family="Open Sans, Helvetica Neue, Helvetica, Arial, sans-serif" font-size="6.00" fill="#000000">cohere</text>
<text text-anchor="middle" x="17.002" y="-66.4314" font-family="Open Sans, Helvetica Neue, Helvetica, Arial, sans-serif" font-size="6.00" fill="#000000">decohere</text>
</g>
</g>
</svg>
