<?xml version="1.0" encoding="UTF-8" standalone="no"?>
<!DOCTYPE svg PUBLIC "-//W3C//DTD SVG 1.1//EN"
 "http://www.w3.org/Graphics/SVG/1.1/DTD/svg11.dtd">
<!-- Generated by graphviz version 2.40.1 (20161225.0304)
 -->
<!-- Title: G Pages: 1 -->
<svg width="334pt" height="44pt"
 viewBox="0.00 0.00 333.65 44.00" xmlns="http://www.w3.org/2000/svg" xmlns:xlink="http://www.w3.org/1999/xlink">
<g id="graph0" class="graph" transform="scale(1 1) rotate(0) translate(4 40)">
<title>G</title>
<polygon fill="#eeeeee" stroke="transparent" points="-4,4 -4,-40 329.655,-40 329.655,4 -4,4"/>
<!-- n0 -->
<g id="node1" class="node">
<title>n0</title>
<polygon fill="#ffffff" stroke="#000000" points="54,-36 0,-36 0,0 54,0 54,-36"/>
<text text-anchor="middle" x="27" y="-13.8" font-family="Times New Roman" font-size="14.00" fill="#000000">solid</text>
</g>
<!-- n1 -->
<g id="node2" class="node">
<title>n1</title>
<polygon fill="#ffffff" stroke="#000000" points="144,-36 90,-36 90,0 144,0 144,-36"/>
<text text-anchor="middle" x="117" y="-13.8" font-family="Times New Roman" font-size="14.00" fill="#000000">liquid</text>
</g>
<!-- n0&#45;&gt;n1 -->
<g id="edge1" class="edge">
<title>n0&#45;&gt;n1</title>
<path fill="none" stroke="#888888" d="M64.1581,-17C69.2377,-17 74.4548,-17 79.5397,-17"/>
<path fill="none" stroke="#777777" d="M64.1581,-19C69.2377,-19 74.4548,-19 79.5397,-19"/>
<polygon fill="none" stroke="#777777" points="64.003,-14.5001 54.003,-18 64.0029,-21.5001 64.003,-14.5001"/>
<polygon fill="none" stroke="#888888" points="79.7051,-21.5001 89.705,-18 79.705,-14.5001 79.7051,-21.5001"/>
<text text-anchor="middle" x="82.3808" y="-12.6" font-family="Open Sans" font-size="6.00" fill="#000000">freeze</text>
<text text-anchor="middle" x="59.3358" y="-12.6" font-family="Open Sans" font-size="6.00" fill="#000000">melt</text>
</g>
<!-- n2 -->
<g id="node3" class="node">
<title>n2</title>
<polygon fill="#ffffff" stroke="#000000" points="234,-36 180,-36 180,0 234,0 234,-36"/>
<text text-anchor="middle" x="207" y="-13.8" font-family="Times New Roman" font-size="14.00" fill="#000000">gas</text>
</g>
<!-- n1&#45;&gt;n2 -->
<g id="edge2" class="edge">
<title>n1&#45;&gt;n2</title>
<path fill="none" stroke="#888888" d="M154.1581,-17C159.2377,-17 164.4548,-17 169.5397,-17"/>
<path fill="none" stroke="#777777" d="M154.1581,-19C159.2377,-19 164.4548,-19 169.5397,-19"/>
<polygon fill="none" stroke="#777777" points="154.003,-14.5001 144.003,-18 154.0029,-21.5001 154.003,-14.5001"/>
<polygon fill="none" stroke="#888888" points="169.7051,-21.5001 179.705,-18 169.705,-14.5001 169.7051,-21.5001"/>
<text text-anchor="middle" x="168.5432" y="-12.6" font-family="Open Sans" font-size="6.00" fill="#000000">condense</text>
<text text-anchor="middle" x="148.6704" y="-12.6" font-family="Open Sans" font-size="6.00" fill="#000000">boil</text>
</g>
<!-- n3 -->
<g id="node4" class="node">
<title>n3</title>
<polygon fill="#ffffff" stroke="#000000" points="325.4836,-36 270.1714,-36 270.1714,0 325.4836,0 325.4836,-36"/>
<text text-anchor="middle" x="297.8275" y="-13.8" font-family="Times New Roman" font-size="14.00" fill="#000000">plasma</text>
</g>
<!-- n2&#45;&gt;n3 -->
<g id="edge3" class="edge">
<title>n2&#45;&gt;n3</title>
<path fill="none" stroke="#888888" d="M244.4031,-17C249.4806,-17 254.6961,-17 259.7847,-17"/>
<path fill="none" stroke="#777777" d="M244.4031,-19C249.4806,-19 254.6961,-19 259.7847,-19"/>
<polygon fill="none" stroke="#777777" points="244.2513,-14.5001 234.2512,-18 244.2512,-21.5001 244.2513,-14.5001"/>
<polygon fill="none" stroke="#888888" points="259.9668,-21.5001 269.9667,-18 259.9667,-14.5001 259.9668,-21.5001"/>
<text text-anchor="middle" x="261.9729" y="-19.8" font-family="Open Sans" font-size="6.00" fill="#000000">cohere</text>
<text text-anchor="middle" x="245.0767" y="-12.6" font-family="Open Sans" font-size="6.00" fill="#000000">decohere</text>
</g>
</g>
</svg>
