<?xml version="1.0" encoding="UTF-8" standalone="no"?>
<!DOCTYPE svg PUBLIC "-//W3C//DTD SVG 1.1//EN"
 "http://www.w3.org/Graphics/SVG/1.1/DTD/svg11.dtd">
<!-- Generated by graphviz version 2.40.1 (20161225.0304)
 -->
<!-- Title: G Pages: 1 -->
<svg width="335pt" height="100pt"
 viewBox="0.00 0.00 335.21 100.15" xmlns="http://www.w3.org/2000/svg" xmlns:xlink="http://www.w3.org/1999/xlink">
<g id="graph0" class="graph" transform="scale(1 1) rotate(0) translate(4 96.1511)">
<title>G</title>
<polygon fill="#eeeeee" stroke="transparent" points="-4,4 -4,-96.1511 331.209,-96.1511 331.209,4 -4,4"/>
<!-- n0 -->
<g id="node1" class="node">
<title>n0</title>
<polygon fill="#ffffff" stroke="#000000" points="54,-50.1511 0,-50.1511 0,-14.1511 54,-14.1511 54,-50.1511"/>
<text text-anchor="middle" x="27" y="-27.9511" font-family="Times New Roman" font-size="14.00" fill="#000000">Green</text>
</g>
<!-- n1 -->
<g id="node2" class="node">
<title>n1</title>
<polygon fill="#ffffff" stroke="#000000" points="147.3139,-50.1511 89.8951,-50.1511 89.8951,-14.1511 147.3139,-14.1511 147.3139,-50.1511"/>
<text text-anchor="middle" x="118.6045" y="-27.9511" font-family="Times New Roman" font-size="14.00" fill="#000000">Yellow</text>
</g>
<!-- n0&#45;&gt;n1 -->
<g id="edge1" class="edge">
<title>n0&#45;&gt;n1</title>
<path fill="none" stroke="#333333" d="M54.4844,-32.1511C62.4273,-32.1511 71.2503,-32.1511 79.7468,-32.1511"/>
<polygon fill="#333333" stroke="#333333" points="79.8677,-35.6512 89.8677,-32.1511 79.8676,-28.6512 79.8677,-35.6512"/>
<text text-anchor="middle" x="59.6498" y="-26.7511" font-family="Open Sans" font-size="6.00" fill="#000000">next</text>
</g>
<!-- n3 -->
<g id="node4" class="node">
<title>n3</title>
<polygon fill="#ffffff" stroke="#000000" points="327.209,-46.1511 273.209,-46.1511 273.209,-10.1511 327.209,-10.1511 327.209,-46.1511"/>
<text text-anchor="middle" x="300.209" y="-23.9511" font-family="Times New Roman" font-size="14.00" fill="#000000">Off</text>
</g>
<!-- n0&#45;&gt;n3 -->
<g id="edge2" class="edge">
<title>n0&#45;&gt;n3</title>
<path fill="none" stroke="#bbbbbb" d="M54.124,-17.6737C64.9629,-12.6569 77.7605,-7.6633 90,-5.1511 149.0806,6.9757 218.9015,-5.9336 261.3475,-16.7402"/>
<polygon fill="none" stroke="#bbbbbb" points="261.4816,-16.7757 268.3067,-14.448 273.0804,-19.8528 266.2553,-22.1805 261.4816,-16.7757"/>
</g>
<!-- n2 -->
<g id="node3" class="node">
<title>n2</title>
<polygon fill="#ffffff" stroke="#000000" points="237.209,-92.1511 183.209,-92.1511 183.209,-56.1511 237.209,-56.1511 237.209,-92.1511"/>
<text text-anchor="middle" x="210.209" y="-69.9511" font-family="Times New Roman" font-size="14.00" fill="#000000">Red</text>
</g>
<!-- n1&#45;&gt;n2 -->
<g id="edge3" class="edge">
<title>n1&#45;&gt;n2</title>
<path fill="none" stroke="#333333" d="M147.5887,-45.4401C155.9033,-49.2523 165.0765,-53.4582 173.7783,-57.4479"/>
<polygon fill="#333333" stroke="#333333" points="172.4238,-60.6771 182.9726,-61.6634 175.3413,-54.3141 172.4238,-60.6771"/>
<text text-anchor="middle" x="152.7541" y="-40.0401" font-family="Open Sans" font-size="6.00" fill="#000000">next</text>
</g>
<!-- n1&#45;&gt;n3 -->
<g id="edge4" class="edge">
<title>n1&#45;&gt;n3</title>
<path fill="none" stroke="#bbbbbb" d="M147.3803,-31.5173C177.9766,-30.8433 226.5706,-29.773 260.7323,-29.0206"/>
<polygon fill="none" stroke="#bbbbbb" points="261.0538,-29.0136 266.9642,-24.8824 273.0509,-28.7493 267.1404,-32.8805 261.0538,-29.0136"/>
</g>
<!-- n2&#45;&gt;n0 -->
<g id="edge5" class="edge">
<title>n2&#45;&gt;n0</title>
<path fill="none" stroke="#333333" d="M183.0545,-72.9376C158.4128,-71.3269 121.262,-67.6188 90,-59.1511 81.1542,-56.7551 71.9289,-53.357 63.353,-49.7767"/>
<polygon fill="#333333" stroke="#333333" points="64.5669,-46.4879 54.0014,-45.7007 61.77,-52.9048 64.5669,-46.4879"/>
<text text-anchor="middle" x="177.8891" y="-67.5376" font-family="Open Sans" font-size="6.00" fill="#000000">next</text>
</g>
<!-- n2&#45;&gt;n3 -->
<g id="edge6" class="edge">
<title>n2&#45;&gt;n3</title>
<path fill="none" stroke="#cccccc" d="M245.7862,-54.8441C250.9273,-52.2164 256.2311,-49.5056 261.4144,-46.8564"/>
<path fill="none" stroke="#777777" d="M246.6964,-56.625C251.8375,-53.9973 257.1414,-51.2865 262.3246,-48.6372"/>
<polygon fill="none" stroke="#777777" points="244.5234,-52.6819 237.212,-60.3496 247.7092,-58.9149 244.5234,-52.6819"/>
<polygon fill="none" stroke="#cccccc" points="262.2288,-47.5632 265.751,-41.2708 272.914,-42.1018 269.3919,-48.3943 262.2288,-47.5632"/>
</g>
</g>
</svg>
