<?xml version="1.0" encoding="UTF-8" standalone="no"?>
<!DOCTYPE svg PUBLIC "-//W3C//DTD SVG 1.1//EN"
 "http://www.w3.org/Graphics/SVG/1.1/DTD/svg11.dtd">
<!-- Generated by graphviz version 2.40.1 (20161225.0304)
 -->
<!-- Title: G Pages: 1 -->
<svg width="250pt" height="44pt"
 viewBox="0.00 0.00 249.87 44.00" xmlns="http://www.w3.org/2000/svg" xmlns:xlink="http://www.w3.org/1999/xlink">
<g id="graph0" class="graph" transform="scale(1 1) rotate(0) translate(4 40)">
<title>G</title>
<polygon fill="#eeeeee" stroke="transparent" points="-4,4 -4,-40 245.871,-40 245.871,4 -4,4"/>
<!-- n0 -->
<g id="node1" class="node">
<title>n0</title>
<polygon fill="#ffffff" stroke="#000000" points="54,-36 0,-36 0,0 54,0 54,-36"/>
<text text-anchor="middle" x="27" y="-13.8" font-family="Times New Roman" font-size="14.00" fill="#000000">hi</text>
</g>
<!-- n1 -->
<g id="node2" class="node">
<title>n1</title>
<polygon fill="#ffffff" stroke="#000000" points="144,-36 90,-36 90,0 144,0 144,-36"/>
<text text-anchor="middle" x="117" y="-13.8" font-family="Times New Roman" font-size="14.00" fill="#000000">hello</text>
</g>
<!-- n0&#45;&gt;n1 -->
<g id="edge1" class="edge">
<title>n0&#45;&gt;n1</title>
<path fill="none" stroke="#777777" d="M54.003,-18C62.0277,-18 70.9665,-18 79.5309,-18"/>
<polygon fill="none" stroke="#777777" points="79.7051,-21.5001 89.705,-18 79.705,-14.5001 79.7051,-21.5001"/>
</g>
<!-- n2 -->
<g id="node3" class="node">
<title>n2</title>
<polygon fill="#ffdddd" stroke="#000000" points="241.8066,-36 180.0644,-36 180.0644,0 241.8066,0 241.8066,-36"/>
<text text-anchor="middle" x="210.9355" y="-13.8" font-family="Times New Roman" font-size="14.00" fill="#000000">hi_there</text>
</g>
<!-- n1&#45;&gt;n2 -->
<g id="edge2" class="edge">
<title>n1&#45;&gt;n2</title>
<path fill="none" stroke="#996666" d="M144.17,-18C152.1928,-18 161.1589,-18 169.8518,-18"/>
<polygon fill="none" stroke="#996666" points="169.8582,-21.5001 179.8581,-18 169.8581,-14.5001 169.8582,-21.5001"/>
</g>
</g>
</svg>
