<?xml version="1.0" encoding="UTF-8" standalone="no"?>
<!DOCTYPE svg PUBLIC "-//W3C//DTD SVG 1.1//EN"
 "http://www.w3.org/Graphics/SVG/1.1/DTD/svg11.dtd">
<!-- Generated by graphviz version 2.40.1 (20161225.0304)
 -->
<!-- Title: G Pages: 1 -->
<svg width="332pt" height="100pt"
 viewBox="0.00 0.00 332.10 100.04" xmlns="http://www.w3.org/2000/svg" xmlns:xlink="http://www.w3.org/1999/xlink">
<g id="graph0" class="graph" transform="scale(1 1) rotate(0) translate(4 96.0431)">
<title>G</title>
<polygon fill="#eeeeee" stroke="transparent" points="-4,4 -4,-96.0431 328.1024,-96.0431 328.1024,4 -4,4"/>
<!-- n0 -->
<g id="node1" class="node">
<title>n0</title>
<polygon fill="#ffffff" stroke="#000000" points="54,-50.0431 0,-50.0431 0,-14.0431 54,-14.0431 54,-50.0431"/>
<text text-anchor="middle" x="27" y="-27.8431" font-family="Times New Roman" font-size="14.00" fill="#000000">green</text>
</g>
<!-- n1 -->
<g id="node2" class="node">
<title>n1</title>
<polygon fill="#ffffff" stroke="#000000" points="144.1537,-50.0431 89.9487,-50.0431 89.9487,-14.0431 144.1537,-14.0431 144.1537,-50.0431"/>
<text text-anchor="middle" x="117.0512" y="-27.8431" font-family="Times New Roman" font-size="14.00" fill="#000000">yellow</text>
</g>
<!-- n0&#45;&gt;n1 -->
<g id="edge1" class="edge">
<title>n0&#45;&gt;n1</title>
<path fill="none" stroke="#333333" d="M54.0183,-32.0431C62.0476,-32.0431 70.9916,-32.0431 79.5607,-32.0431"/>
<polygon fill="#333333" stroke="#333333" points="79.7407,-35.5432 89.7407,-32.0431 79.7407,-28.5432 79.7407,-35.5432"/>
</g>
<!-- n3 -->
<g id="node4" class="node">
<title>n3</title>
<polygon fill="#ffffff" stroke="#000000" points="324.1024,-46.0431 270.1024,-46.0431 270.1024,-10.0431 324.1024,-10.0431 324.1024,-46.0431"/>
<text text-anchor="middle" x="297.1024" y="-23.8431" font-family="Times New Roman" font-size="14.00" fill="#000000">off</text>
</g>
<!-- n0&#45;&gt;n3 -->
<g id="edge2" class="edge">
<title>n0&#45;&gt;n3</title>
<path fill="none" stroke="#bbbbbb" d="M54.124,-17.5658C64.9629,-12.5489 77.7605,-7.5554 90,-5.0431 147.932,6.8479 216.3288,-5.8269 258.2013,-16.54
2"/>
<polygon fill="none" stroke="#bbbbbb" points="258.4529,-16.609 265.2815,-14.2916 270.047,-19.7036 263.2184,-22.021 258.4529,-16.609"/>
</g>
<!-- n2 -->
<g id="node3" class="node">
<title>n2</title>
<polygon fill="#ffffff" stroke="#000000" points="234.1024,-92.0431 180.1024,-92.0431 180.1024,-56.0431 234.1024,-56.0431 234.1024,-92.0431"/>
<text text-anchor="middle" x="207.1024" y="-69.8431" font-family="Times New Roman" font-size="14.00" fill="#000000">red</text>
</g>
<!-- n1&#45;&gt;n2 -->
<g id="edge3" class="edge">
<title>n1&#45;&gt;n2</title>
<path fill="none" stroke="#333333" d="M144.5588,-44.8727C152.8394,-48.7348 162.0566,-53.0337 170.8149,-57.1186"/>
<polygon fill="#333333" stroke="#333333" points="169.5304,-60.3814 180.0726,-61.4364 172.4893,-54.0375 169.5304,-60.3814"/>
</g>
<!-- n1&#45;&gt;n3 -->
<g id="edge4" class="edge">
<title>n1&#45;&gt;n3</title>
<path fill="none" stroke="#bbbbbb" d="M144.3971,-31.4356C174.5795,-30.7651 223.4221,-29.68 257.7238,-28.9179"/>
<polygon fill="none" stroke="#bbbbbb" points="258.0921,-28.9099 264.0017,-24.7775 270.0891,-28.6432 264.1794,-32.7756 258.0921,-28.9099"/>
</g>
<!-- n2&#45;&gt;n0 -->
<g id="edge5" class="edge">
<title>n2&#45;&gt;n0</title>
<path fill="none" stroke="#333333" d="M179.7078,-72.6848C155.705,-70.9889 120.0576,-67.2372 90,-59.0431 81.1581,-56.6327 71.9343,-53.2289 63.3587,
-49.6476"/>
<polygon fill="#333333" stroke="#333333" points="64.5725,-46.3587 54.0069,-45.5723 61.776,-52.7759 64.5725,-46.3587"/>
</g>
<!-- n2&#45;&gt;n3 -->
<g id="edge6" class="edge">
<title>n2&#45;&gt;n3</title>
<path fill="none" stroke="#cccccc" d="M242.6796,-54.7362C247.8207,-52.1085 253.1245,-49.3976 258.3078,-46.7484"/>
<path fill="none" stroke="#777777" d="M243.5898,-56.517C248.7309,-53.8894 254.0348,-51.1785 259.218,-48.5293"/>
<polygon fill="none" stroke="#777777" points="241.4168,-52.5739 234.1054,-60.2416 244.6026,-58.807 241.4168,-52.5739"/>
<polygon fill="none" stroke="#cccccc" points="259.1222,-47.4553 262.6444,-41.1628 269.8074,-41.9939 266.2853,-48.2863 259.1222,-47.4553"/>
</g>
</g>
</svg>
